<svg width="176" height="96" viewBox="0 0 176 96" fill="none" xmlns="http://www.w3.org/2000/svg">
<path d="M47 16H78.0096" stroke="#DE4E4E" stroke-width="3" stroke-linecap="round"/>
<path d="M47 15H78.0096" stroke="#DE4E4E" stroke-width="3" stroke-linecap="round"/>
<circle cx="163.789" cy="48" r="48" fill="#FAF6F6"/>
<path d="M19.6334 30.3281C18.2662 30.3281 16.8502 30.3379 15.3853 30.3574C13.9205 30.377 12.3189 30.3867 10.5806 30.3867C10.1119 30.3867 9.70172 30.2793 9.35016 30.0645C8.9986 29.8496 8.70563 29.5762 8.47125 29.2441C8.23688 28.8926 8.0611 28.502 7.94391 28.0723C7.82672 27.6426 7.76813 27.2129 7.76813 26.7832C7.76813 25.6309 8.09039 24.8398 8.73492 24.4102C9.37946 23.9609 10.4244 23.7363 11.8697 23.7363H35.2486C35.6392 23.7363 36.0396 23.7852 36.4498 23.8828C36.8795 23.9805 37.2603 24.1562 37.5923 24.4102C37.9439 24.6641 38.2271 24.9961 38.442 25.4062C38.6763 25.8164 38.7935 26.3438 38.7935 26.9883C38.7935 27.457 38.7154 27.9062 38.5591 28.3359C38.4029 28.7656 38.188 29.1367 37.9146 29.4492C37.6607 29.7617 37.3482 30.0156 36.9771 30.2109C36.6255 30.4063 36.2447 30.5039 35.8345 30.5039C35.522 30.5039 35.2193 30.4746 34.9263 30.416C34.6334 30.3574 34.3209 30.3281 33.9888 30.3281H26.4302L26.3423 63.375C26.3423 63.8438 26.3716 64.3027 26.4302 64.752C26.5084 65.2012 26.5474 65.6895 26.5474 66.2168C26.5474 66.6465 26.5084 67.0762 26.4302 67.5059C26.3521 67.9355 26.1861 68.3262 25.9322 68.6777C25.6783 69.0293 25.317 69.3125 24.8482 69.5273C24.3795 69.7617 23.7642 69.8789 23.0025 69.8789C22.1041 69.8789 21.4205 69.7227 20.9517 69.4102C20.483 69.1172 20.1412 68.7363 19.9263 68.2676C19.731 67.7988 19.6236 67.2812 19.6041 66.7148C19.5845 66.1484 19.5748 65.6016 19.5748 65.0742L19.6334 30.3281ZM45.4732 47.4668C45.4537 44.3613 45.4537 41.2461 45.4732 38.1211C45.5123 34.9766 45.5318 31.6855 45.5318 28.248C45.5318 27.4277 45.5709 26.6855 45.649 26.0215C45.7466 25.3574 45.9127 24.791 46.147 24.3223C46.3814 23.8535 46.6939 23.502 47.0845 23.2676C47.4947 23.0137 48.0123 22.8867 48.6373 22.8867C50.063 22.8867 51.0689 23.3066 51.6548 24.1465C52.2408 24.9668 52.5338 26.0898 52.5338 27.5156C52.5338 27.9258 52.524 28.3652 52.5045 28.834C52.4849 29.3027 52.4654 29.8594 52.4459 30.5039C52.4263 31.1484 52.397 31.9297 52.358 32.8477C52.3384 33.7656 52.3189 34.8691 52.2994 36.1582C52.2798 37.4473 52.2603 38.9707 52.2408 40.7285C52.2213 42.4863 52.2115 44.5371 52.2115 46.8809C52.2115 48.2871 52.2505 49.6836 52.3287 51.0703C52.4263 52.4375 52.6021 53.7461 52.856 54.9961C53.1295 56.2266 53.5103 57.3691 53.9986 58.4238C54.4869 59.4785 55.1119 60.3965 55.8736 61.1777C56.6548 61.9395 57.6021 62.5352 58.7154 62.9648C59.8482 63.3945 61.1861 63.6094 62.7291 63.6094C64.5064 63.6094 66.0103 63.248 67.2408 62.5254C68.4713 61.8027 69.4673 60.748 70.2291 59.3613C71.0103 57.9746 71.567 56.2656 71.899 54.2344C72.2505 52.1836 72.4263 49.8398 72.4263 47.2031C72.4263 42.457 72.3873 38.4434 72.3091 35.1621C72.231 31.8809 72.1724 29.5078 72.1334 28.043C72.1138 27.75 72.1041 27.4473 72.1041 27.1348C72.1041 26.8223 72.1041 26.6367 72.1041 26.5781C72.1041 25.1914 72.4068 24.2344 73.0123 23.707C73.6373 23.1602 74.4673 22.8867 75.5025 22.8867C76.1666 22.8867 76.7232 22.9844 77.1724 23.1797C77.6412 23.375 78.0123 23.6289 78.2857 23.9414C78.5591 24.2539 78.7545 24.6055 78.8716 24.9961C78.9888 25.3867 79.0474 25.7676 79.0474 26.1387C79.0474 26.7832 79.0181 27.4473 78.9595 28.1309C78.9205 28.7949 78.9009 29.4883 78.9009 30.2109C78.9009 31.7734 78.9107 33.2188 78.9302 34.5469C78.9498 35.875 78.9791 37.1445 79.0181 38.3555C79.0181 39.7617 79.0377 41.1875 79.0767 42.6328C79.1158 44.0586 79.1353 45.6016 79.1353 47.2617C79.1353 50.8359 78.7935 54.0293 78.1099 56.8418C77.4459 59.6348 76.4205 61.998 75.0338 63.9316C73.647 65.8652 71.899 67.3398 69.7896 68.3555C67.6998 69.3711 65.2388 69.8789 62.4068 69.8789C60.981 69.8789 59.5748 69.7422 58.188 69.4688C56.8013 69.2148 55.483 68.7656 54.233 68.1211C52.983 67.4766 51.8209 66.6074 50.7466 65.5137C49.692 64.4199 48.774 63.043 47.9927 61.3828C47.2115 59.7227 46.5963 57.75 46.147 55.4648C45.6978 53.1797 45.4732 50.5137 45.4732 47.4668Z" fill="#DE4E4E"/>
<path d="M101.02 66.8906C100.297 64.8789 99.5162 62.75 98.6763 60.5039C97.8365 58.2578 96.9771 56.002 96.0982 53.7363C95.2193 51.4707 94.3502 49.2637 93.4908 47.1152C92.6509 44.9473 91.8697 42.9551 91.147 41.1387C90.4634 39.4395 89.8091 37.8184 89.1841 36.2754C88.5787 34.7129 88.0318 33.2969 87.5435 32.0273C87.0748 30.7578 86.6744 29.6641 86.3423 28.7461C86.0103 27.8281 85.7955 27.1445 85.6978 26.6953C85.5611 26.168 85.5513 25.6797 85.6685 25.2305C85.8052 24.7813 86.0201 24.3906 86.313 24.0586C86.6255 23.707 86.9966 23.4434 87.4263 23.2676C87.8755 23.0723 88.3638 22.9746 88.8912 22.9746C90.2974 22.9746 91.274 23.5996 91.8209 24.8496C92.0943 25.5332 92.4947 26.5488 93.022 27.8965C93.5689 29.2441 94.1841 30.8164 94.8677 32.6133C95.5709 34.4102 96.3326 36.373 97.1529 38.502C97.9732 40.6113 98.8033 42.7695 99.6431 44.9766C100.503 47.1836 101.342 49.3906 102.163 51.5977C102.983 53.7852 103.754 55.8457 104.477 57.7793C105.239 55.7871 106.001 53.7754 106.762 51.7441C107.544 49.6934 108.305 47.6816 109.047 45.709C109.79 43.7363 110.503 41.832 111.186 39.9961C111.87 38.1602 112.495 36.4512 113.061 34.8691C113.647 33.2676 114.174 31.8223 114.643 30.5332C115.112 29.2441 115.493 28.1602 115.786 27.2812C115.805 26.8516 115.903 26.3828 116.079 25.875C116.254 25.3672 116.499 24.8984 116.811 24.4688C117.143 24.0195 117.544 23.6484 118.012 23.3555C118.481 23.043 119.028 22.8867 119.653 22.8867C120.102 22.8867 120.542 22.9746 120.971 23.1504C121.401 23.3262 121.782 23.5703 122.114 23.8828C122.446 24.1758 122.71 24.5371 122.905 24.9668C123.12 25.3965 123.227 25.8555 123.227 26.3438C123.227 26.7539 123.169 27.1641 123.051 27.5742C122.934 27.9844 122.788 28.3848 122.612 28.7754C122.456 29.1465 122.28 29.498 122.085 29.8301C121.909 30.1426 121.753 30.4063 121.616 30.6211L121.586 30.6797C120.669 32.7891 119.829 34.7715 119.067 36.627C118.305 38.4824 117.583 40.2793 116.899 42.0176C116.215 43.7559 115.561 45.4551 114.936 47.1152C114.331 48.7559 113.715 50.4258 113.09 52.125C112.368 54.0977 111.557 56.2559 110.659 58.5996C109.78 60.9238 108.833 63.3848 107.817 65.9824C107.856 66.1387 107.885 66.3047 107.905 66.4805C107.924 66.6562 107.934 66.8223 107.934 66.9785C107.934 67.584 107.827 68.0723 107.612 68.4434C107.417 68.8145 107.143 69.1074 106.792 69.3223C106.46 69.5371 106.069 69.6836 105.62 69.7617C105.17 69.8398 104.711 69.8789 104.243 69.8789C103.676 69.8789 103.208 69.791 102.836 69.6152C102.485 69.4395 102.192 69.2051 101.958 68.9121C101.723 68.6191 101.538 68.2969 101.401 67.9453C101.264 67.5938 101.137 67.2422 101.02 66.8906ZM129.614 47.4668C129.594 44.3613 129.594 41.2461 129.614 38.1211C129.653 34.9766 129.672 31.6855 129.672 28.248C129.672 27.4277 129.711 26.6855 129.79 26.0215C129.887 25.3574 130.053 24.791 130.288 24.3223C130.522 23.8535 130.835 23.502 131.225 23.2676C131.635 23.0137 132.153 22.8867 132.778 22.8867C134.204 22.8867 135.21 23.3066 135.795 24.1465C136.381 24.9668 136.674 26.0898 136.674 27.5156C136.674 27.9258 136.665 28.3652 136.645 28.834C136.626 29.3027 136.606 29.8594 136.586 30.5039C136.567 31.1484 136.538 31.9297 136.499 32.8477C136.479 33.7656 136.46 34.8691 136.44 36.1582C136.42 37.4473 136.401 38.9707 136.381 40.7285C136.362 42.4863 136.352 44.5371 136.352 46.8809C136.352 48.2871 136.391 49.6836 136.469 51.0703C136.567 52.4375 136.743 53.7461 136.997 54.9961C137.27 56.2266 137.651 57.3691 138.139 58.4238C138.628 59.4785 139.253 60.3965 140.014 61.1777C140.795 61.9395 141.743 62.5352 142.856 62.9648C143.989 63.3945 145.327 63.6094 146.87 63.6094C148.647 63.6094 150.151 63.248 151.381 62.5254C152.612 61.8027 153.608 60.748 154.37 59.3613C155.151 57.9746 155.708 56.2656 156.04 54.2344C156.391 52.1836 156.567 49.8398 156.567 47.2031C156.567 42.457 156.528 38.4434 156.45 35.1621C156.372 31.8809 156.313 29.5078 156.274 28.043C156.254 27.75 156.245 27.4473 156.245 27.1348C156.245 26.8223 156.245 26.6367 156.245 26.5781C156.245 25.1914 156.547 24.2344 157.153 23.707C157.778 23.1602 158.608 22.8867 159.643 22.8867C160.307 22.8867 160.864 22.9844 161.313 23.1797C161.782 23.375 162.153 23.6289 162.426 23.9414C162.7 24.2539 162.895 24.6055 163.012 24.9961C163.129 25.3867 163.188 25.7676 163.188 26.1387C163.188 26.7832 163.159 27.4473 163.1 28.1309C163.061 28.7949 163.042 29.4883 163.042 30.2109C163.042 31.7734 163.051 33.2188 163.071 34.5469C163.09 35.875 163.12 37.1445 163.159 38.3555C163.159 39.7617 163.178 41.1875 163.217 42.6328C163.256 44.0586 163.276 45.6016 163.276 47.2617C163.276 50.8359 162.934 54.0293 162.251 56.8418C161.586 59.6348 160.561 61.998 159.174 63.9316C157.788 65.8652 156.04 67.3398 153.93 68.3555C151.84 69.3711 149.379 69.8789 146.547 69.8789C145.122 69.8789 143.715 69.7422 142.329 69.4688C140.942 69.2148 139.624 68.7656 138.374 68.1211C137.124 67.4766 135.961 66.6074 134.887 65.5137C133.833 64.4199 132.915 63.043 132.133 61.3828C131.352 59.7227 130.737 57.75 130.288 55.4648C129.838 53.1797 129.614 50.5137 129.614 47.4668Z" fill="black"/>
<path d="M132 75L162 75" stroke="black" stroke-width="3" stroke-linecap="round"/>
<path d="M132 76L162 76" stroke="black" stroke-width="3" stroke-linecap="round"/>
</svg>
