<svg width="48" height="48" viewBox="0 0 48 48" fill="none" xmlns="http://www.w3.org/2000/svg">
<circle cx="24" cy="24" r="24" fill="#FAF6F6"/>
<path d="M15 10H32.6755" stroke="#DE4E4E" stroke-width="3" stroke-linecap="round"/>
<path d="M13.8926 29.0801C13.8809 27.2168 13.8809 25.3477 13.8926 23.4727C13.916 21.5859 13.9277 19.6113 13.9277 17.5488C13.9277 17.0566 13.9512 16.6113 13.998 16.2129C14.0566 15.8145 14.1562 15.4746 14.2969 15.1934C14.4375 14.9121 14.625 14.7012 14.8594 14.5605C15.1055 14.4082 15.416 14.332 15.791 14.332C16.6465 14.332 17.25 14.584 17.6016 15.0879C17.9531 15.5801 18.1289 16.2539 18.1289 17.1094C18.1289 17.3555 18.123 17.6191 18.1113 17.9004C18.0996 18.1816 18.0879 18.5156 18.0762 18.9023C18.0645 19.2891 18.0469 19.7578 18.0234 20.3086C18.0117 20.8594 18 21.5215 17.9883 22.2949C17.9766 23.0684 17.9648 23.9824 17.9531 25.0371C17.9414 26.0918 17.9355 27.3223 17.9355 28.7285C17.9355 29.5723 17.959 30.4102 18.0059 31.2422C18.0645 32.0625 18.1699 32.8477 18.3223 33.5977C18.4863 34.3359 18.7148 35.0215 19.0078 35.6543C19.3008 36.2871 19.6758 36.8379 20.1328 37.3066C20.6016 37.7637 21.1699 38.1211 21.8379 38.3789C22.5176 38.6367 23.3203 38.7656 24.2461 38.7656C25.3125 38.7656 26.2148 38.5488 26.9531 38.1152C27.6914 37.6816 28.2891 37.0488 28.7461 36.2168C29.2148 35.3848 29.5488 34.3594 29.748 33.1406C29.959 31.9102 30.0645 30.5039 30.0645 28.9219C30.0645 26.0742 30.041 23.666 29.9941 21.6973C29.9473 19.7285 29.9121 18.3047 29.8887 17.4258C29.877 17.25 29.8711 17.0684 29.8711 16.8809C29.8711 16.6934 29.8711 16.582 29.8711 16.5469C29.8711 15.7148 30.0527 15.1406 30.416 14.8242C30.791 14.4961 31.2891 14.332 31.9102 14.332C32.3086 14.332 32.6426 14.3906 32.9121 14.5078C33.1934 14.625 33.416 14.7773 33.5801 14.9648C33.7441 15.1523 33.8613 15.3633 33.9316 15.5977C34.002 15.832 34.0371 16.0605 34.0371 16.2832C34.0371 16.6699 34.0195 17.0684 33.9844 17.4785C33.9609 17.877 33.9492 18.293 33.9492 18.7266C33.9492 19.6641 33.9551 20.5312 33.9668 21.3281C33.9785 22.125 33.9961 22.8867 34.0195 23.6133C34.0195 24.457 34.0312 25.3125 34.0547 26.1797C34.0781 27.0352 34.0898 27.9609 34.0898 28.957C34.0898 31.1016 33.8848 33.0176 33.4746 34.7051C33.0762 36.3809 32.4609 37.7988 31.6289 38.959C30.7969 40.1191 29.748 41.0039 28.4824 41.6133C27.2285 42.2227 25.752 42.5273 24.0527 42.5273C23.1973 42.5273 22.3535 42.4453 21.5215 42.2812C20.6895 42.1289 19.8984 41.8594 19.1484 41.4727C18.3984 41.0859 17.7012 40.5645 17.0566 39.9082C16.4238 39.252 15.873 38.4258 15.4043 37.4297C14.9355 36.4336 14.5664 35.25 14.2969 33.8789C14.0273 32.5078 13.8926 30.9082 13.8926 29.0801Z" fill="#DE4E4E"/>
</svg>
