<svg width="100" height="48" viewBox="0 0 100 48" fill="none" xmlns="http://www.w3.org/2000/svg">
<path d="M26 5H43.6755" stroke="#DE4E4E" stroke-width="3" stroke-linecap="round"/>
<circle cx="90" cy="24" r="24" fill="#FAF6F6"/>
<path d="M9.14844 13.7969C8.32812 13.7969 7.47852 13.8027 6.59961 13.8145C5.7207 13.8262 4.75977 13.832 3.7168 13.832C3.43555 13.832 3.18945 13.7676 2.97852 13.6387C2.76758 13.5098 2.5918 13.3457 2.45117 13.1465C2.31055 12.9355 2.20508 12.7012 2.13477 12.4434C2.06445 12.1855 2.0293 11.9277 2.0293 11.6699C2.0293 10.9785 2.22266 10.5039 2.60938 10.2461C2.99609 9.97656 3.62305 9.8418 4.49023 9.8418H18.5176C18.752 9.8418 18.9922 9.87109 19.2383 9.92969C19.4961 9.98828 19.7246 10.0937 19.9238 10.2461C20.1348 10.3984 20.3047 10.5977 20.4336 10.8438C20.5742 11.0898 20.6445 11.4062 20.6445 11.793C20.6445 12.0742 20.5977 12.3437 20.5039 12.6016C20.4102 12.8594 20.2812 13.082 20.1172 13.2695C19.9648 13.457 19.7773 13.6094 19.5547 13.7266C19.3438 13.8438 19.1152 13.9023 18.8691 13.9023C18.6816 13.9023 18.5 13.8848 18.3242 13.8496C18.1484 13.8145 17.9609 13.7969 17.7617 13.7969H13.2266L13.1738 33.625C13.1738 33.9062 13.1914 34.1816 13.2266 34.4512C13.2734 34.7207 13.2969 35.0137 13.2969 35.3301C13.2969 35.5879 13.2734 35.8457 13.2266 36.1035C13.1797 36.3613 13.0801 36.5957 12.9277 36.8066C12.7754 37.0176 12.5586 37.1875 12.2773 37.3164C11.9961 37.457 11.627 37.5273 11.1699 37.5273C10.6309 37.5273 10.2207 37.4336 9.93945 37.2461C9.6582 37.0703 9.45312 36.8418 9.32422 36.5605C9.20703 36.2793 9.14258 35.9688 9.13086 35.6289C9.11914 35.2891 9.11328 34.9609 9.11328 34.6445L9.14844 13.7969ZM24.6523 24.0801C24.6406 22.2168 24.6406 20.3477 24.6523 18.4727C24.6758 16.5859 24.6875 14.6113 24.6875 12.5488C24.6875 12.0566 24.7109 11.6113 24.7578 11.2129C24.8164 10.8145 24.916 10.4746 25.0566 10.1934C25.1973 9.91211 25.3848 9.70117 25.6191 9.56055C25.8652 9.4082 26.1758 9.33203 26.5508 9.33203C27.4062 9.33203 28.0098 9.58398 28.3613 10.0879C28.7129 10.5801 28.8887 11.2539 28.8887 12.1094C28.8887 12.3555 28.8828 12.6191 28.8711 12.9004C28.8594 13.1816 28.8477 13.5156 28.8359 13.9023C28.8242 14.2891 28.8066 14.7578 28.7832 15.3086C28.7715 15.8594 28.7598 16.5215 28.748 17.2949C28.7363 18.0684 28.7246 18.9824 28.7129 20.0371C28.7012 21.0918 28.6953 22.3223 28.6953 23.7285C28.6953 24.5723 28.7188 25.4102 28.7656 26.2422C28.8242 27.0625 28.9297 27.8477 29.082 28.5977C29.2461 29.3359 29.4746 30.0215 29.7676 30.6543C30.0605 31.2871 30.4355 31.8379 30.8926 32.3066C31.3613 32.7637 31.9297 33.1211 32.5977 33.3789C33.2773 33.6367 34.0801 33.7656 35.0059 33.7656C36.0723 33.7656 36.9746 33.5488 37.7129 33.1152C38.4512 32.6816 39.0488 32.0488 39.5059 31.2168C39.9746 30.3848 40.3086 29.3594 40.5078 28.1406C40.7188 26.9102 40.8242 25.5039 40.8242 23.9219C40.8242 21.0742 40.8008 18.666 40.7539 16.6973C40.707 14.7285 40.6719 13.3047 40.6484 12.4258C40.6367 12.25 40.6309 12.0684 40.6309 11.8809C40.6309 11.6934 40.6309 11.582 40.6309 11.5469C40.6309 10.7148 40.8125 10.1406 41.1758 9.82422C41.5508 9.49609 42.0488 9.33203 42.6699 9.33203C43.0684 9.33203 43.4023 9.39062 43.6719 9.50781C43.9531 9.625 44.1758 9.77734 44.3398 9.96484C44.5039 10.1523 44.6211 10.3633 44.6914 10.5977C44.7617 10.832 44.7969 11.0605 44.7969 11.2832C44.7969 11.6699 44.7793 12.0684 44.7441 12.4785C44.7207 12.877 44.709 13.293 44.709 13.7266C44.709 14.6641 44.7148 15.5313 44.7266 16.3281C44.7383 17.125 44.7559 17.8867 44.7793 18.6133C44.7793 19.457 44.791 20.3125 44.8145 21.1797C44.8379 22.0352 44.8496 22.9609 44.8496 23.957C44.8496 26.1016 44.6445 28.0176 44.2344 29.7051C43.8359 31.3809 43.2207 32.7988 42.3887 33.959C41.5566 35.1191 40.5078 36.0039 39.2422 36.6133C37.9883 37.2227 36.5117 37.5273 34.8125 37.5273C33.957 37.5273 33.1133 37.4453 32.2812 37.2812C31.4492 37.1289 30.6582 36.8594 29.9082 36.4727C29.1582 36.0859 28.4609 35.5645 27.8164 34.9082C27.1836 34.252 26.6328 33.4258 26.1641 32.4297C25.6953 31.4336 25.3262 30.25 25.0566 28.8789C24.7871 27.5078 24.6523 25.9082 24.6523 24.0801Z" fill="#DE4E4E"/>
<path d="M57.9805 35.7344C57.5469 34.5273 57.0781 33.25 56.5742 31.9023C56.0703 30.5547 55.5547 29.2012 55.0273 27.8418C54.5 26.4824 53.9785 25.1582 53.4629 23.8691C52.959 22.5684 52.4902 21.373 52.0566 20.2832C51.6465 19.2637 51.2539 18.291 50.8789 17.3652C50.5156 16.4277 50.1875 15.5781 49.8945 14.8164C49.6133 14.0547 49.373 13.3984 49.1738 12.8477C48.9746 12.2969 48.8457 11.8867 48.7871 11.6172C48.7051 11.3008 48.6992 11.0078 48.7695 10.7383C48.8516 10.4688 48.9805 10.2344 49.1562 10.0352C49.3438 9.82422 49.5664 9.66602 49.8242 9.56055C50.0938 9.44336 50.3867 9.38477 50.7031 9.38477C51.5469 9.38477 52.1328 9.75977 52.4609 10.5098C52.625 10.9199 52.8652 11.5293 53.1816 12.3379C53.5098 13.1465 53.8789 14.0898 54.2891 15.168C54.7109 16.2461 55.168 17.4238 55.6602 18.7012C56.1523 19.9668 56.6504 21.2617 57.1543 22.5859C57.6699 23.9102 58.1738 25.2344 58.666 26.5586C59.1582 27.8711 59.6211 29.1074 60.0547 30.2676C60.5117 29.0723 60.9688 27.8652 61.4258 26.6465C61.8945 25.416 62.3516 24.209 62.7969 23.0254C63.2422 21.8418 63.6699 20.6992 64.0801 19.5977C64.4902 18.4961 64.8652 17.4707 65.2051 16.5215C65.5566 15.5605 65.873 14.6934 66.1543 13.9199C66.4355 13.1465 66.6641 12.4961 66.8398 11.9688C66.8516 11.7109 66.9102 11.4297 67.0156 11.125C67.1211 10.8203 67.2676 10.5391 67.4551 10.2812C67.6543 10.0117 67.8945 9.78906 68.1758 9.61328C68.457 9.42578 68.7852 9.33203 69.1602 9.33203C69.4297 9.33203 69.6934 9.38477 69.9512 9.49023C70.209 9.5957 70.4375 9.74219 70.6367 9.92969C70.8359 10.1055 70.9941 10.3223 71.1113 10.5801C71.2402 10.8379 71.3047 11.1133 71.3047 11.4062C71.3047 11.6523 71.2695 11.8984 71.1992 12.1445C71.1289 12.3906 71.041 12.6309 70.9355 12.8652C70.8418 13.0879 70.7363 13.2988 70.6191 13.498C70.5137 13.6855 70.4199 13.8438 70.3379 13.9727L70.3203 14.0078C69.7695 15.2734 69.2656 16.4629 68.8086 17.5762C68.3516 18.6895 67.918 19.7676 67.5078 20.8105C67.0977 21.8535 66.7051 22.873 66.3301 23.8691C65.9668 24.8535 65.5977 25.8555 65.2227 26.875C64.7891 28.0586 64.3027 29.3535 63.7637 30.7598C63.2363 32.1543 62.668 33.6309 62.0586 35.1895C62.082 35.2832 62.0996 35.3828 62.1113 35.4883C62.123 35.5938 62.1289 35.6934 62.1289 35.7871C62.1289 36.1504 62.0645 36.4434 61.9355 36.666C61.8184 36.8887 61.6543 37.0645 61.4434 37.1934C61.2441 37.3223 61.0098 37.4102 60.7402 37.457C60.4707 37.5039 60.1953 37.5273 59.9141 37.5273C59.5742 37.5273 59.293 37.4746 59.0703 37.3691C58.8594 37.2637 58.6836 37.123 58.543 36.9473C58.4023 36.7715 58.291 36.5781 58.209 36.3672C58.127 36.1562 58.0508 35.9453 57.9805 35.7344ZM75.1367 24.0801C75.125 22.2168 75.125 20.3477 75.1367 18.4727C75.1602 16.5859 75.1719 14.6113 75.1719 12.5488C75.1719 12.0566 75.1953 11.6113 75.2422 11.2129C75.3008 10.8145 75.4004 10.4746 75.541 10.1934C75.6816 9.91211 75.8691 9.70117 76.1035 9.56055C76.3496 9.4082 76.6602 9.33203 77.0352 9.33203C77.8906 9.33203 78.4941 9.58398 78.8457 10.0879C79.1973 10.5801 79.373 11.2539 79.373 12.1094C79.373 12.3555 79.3672 12.6191 79.3555 12.9004C79.3438 13.1816 79.332 13.5156 79.3203 13.9023C79.3086 14.2891 79.291 14.7578 79.2676 15.3086C79.2559 15.8594 79.2441 16.5215 79.2324 17.2949C79.2207 18.0684 79.209 18.9824 79.1973 20.0371C79.1855 21.0918 79.1797 22.3223 79.1797 23.7285C79.1797 24.5723 79.2031 25.4102 79.25 26.2422C79.3086 27.0625 79.4141 27.8477 79.5664 28.5977C79.7305 29.3359 79.959 30.0215 80.252 30.6543C80.5449 31.2871 80.9199 31.8379 81.377 32.3066C81.8457 32.7637 82.4141 33.1211 83.082 33.3789C83.7617 33.6367 84.5645 33.7656 85.4902 33.7656C86.5566 33.7656 87.459 33.5488 88.1973 33.1152C88.9355 32.6816 89.5332 32.0488 89.9902 31.2168C90.459 30.3848 90.793 29.3594 90.9922 28.1406C91.2031 26.9102 91.3086 25.5039 91.3086 23.9219C91.3086 21.0742 91.2852 18.666 91.2383 16.6973C91.1914 14.7285 91.1562 13.3047 91.1328 12.4258C91.1211 12.25 91.1152 12.0684 91.1152 11.8809C91.1152 11.6934 91.1152 11.582 91.1152 11.5469C91.1152 10.7148 91.2969 10.1406 91.6602 9.82422C92.0352 9.49609 92.5332 9.33203 93.1543 9.33203C93.5527 9.33203 93.8867 9.39062 94.1562 9.50781C94.4375 9.625 94.6602 9.77734 94.8242 9.96484C94.9883 10.1523 95.1055 10.3633 95.1758 10.5977C95.2461 10.832 95.2812 11.0605 95.2812 11.2832C95.2812 11.6699 95.2637 12.0684 95.2285 12.4785C95.2051 12.877 95.1934 13.293 95.1934 13.7266C95.1934 14.6641 95.1992 15.5313 95.2109 16.3281C95.2227 17.125 95.2402 17.8867 95.2637 18.6133C95.2637 19.457 95.2754 20.3125 95.2988 21.1797C95.3223 22.0352 95.334 22.9609 95.334 23.957C95.334 26.1016 95.1289 28.0176 94.7188 29.7051C94.3203 31.3809 93.7051 32.7988 92.873 33.959C92.041 35.1191 90.9922 36.0039 89.7266 36.6133C88.4727 37.2227 86.9961 37.5273 85.2969 37.5273C84.4414 37.5273 83.5977 37.4453 82.7656 37.2812C81.9336 37.1289 81.1426 36.8594 80.3926 36.4727C79.6426 36.0859 78.9453 35.5645 78.3008 34.9082C77.668 34.252 77.1172 33.4258 76.6484 32.4297C76.1797 31.4336 75.8105 30.25 75.541 28.8789C75.2715 27.5078 75.1367 25.9082 75.1367 24.0801Z" fill="black"/>
<path d="M77 41H94.6755" stroke="black" stroke-width="3" stroke-linecap="round"/>
</svg>
